<?xml version="1.0" encoding="utf-8"?>
<!-- Svg Vector Icons : http://www.onlinewebfonts.com/icon -->
<!DOCTYPE svg PUBLIC "-//W3C//DTD SVG 1.1//EN" "http://www.w3.org/Graphics/SVG/1.1/DTD/svg11.dtd">
<svg version="1.1" xmlns="http://www.w3.org/2000/svg" xmlns:xlink="http://www.w3.org/1999/xlink" x="0px" y="0px" viewBox="0 0 1000 1000" enable-background="new 0 0 1000 1000" xml:space="preserve">
<metadata> Svg Vector Icons : http://www.onlinewebfonts.com/icon </metadata>
<g><path d="M985.4,773.4c-2.7,2.2-9.3,1.6-17.5-4.3c-5.5-4.9-420.2-2.6-465.9-1.7l0,0.1c0,0-0.7,0-2,0c-1.3,0-2,0-2,0l-0.1-0.1c-45.9-0.9-460.3-3.1-465.9,1.7c-8.2,5.8-14.7,6.5-17.5,4.3c-2.9-2.6-5.2-12.8-4.4-23.6c1.8-25.7,25.1-48.7,72.4-75.3c47.3-26.6,205.3-110.8,260-144.8c54.7-34,50.2-42.8,60.6-59.1c38.3-69.8,66.5-76.2,91.6-77.9c0.5-0.1,0.9-0.1,1.4-0.2v-46.8c0,0-1.2-5.3,11.5-13.3c10.9-6.9,17.9-11.8,24.5-19v-0.5c0.7-0.6,1.4-1.2,2.1-1.9c0.4-0.4,0.8-0.9,1.1-1.4c0.8-0.9,1.4-1.6,2-2c6.3-7.4,10.2-17.1,10.2-27.6c0-23.5-19.1-42.6-42.6-42.6c-23.5,0-42.6,19.1-42.6,42.6c0,2.3,0.2,4.5,0.6,6.7h-0.3c0,0.1,0,0.1,0,0.2c0,3.3-2.6,5.9-5.9,5.9s-5.9-2.6-5.9-5.9c0-0.1,0-0.1,0-0.2h-0.2c-0.3-2.2-0.4-4.4-0.4-6.7c0-30.2,24.5-54.7,54.7-54.7c30.2,0,54.7,24.5,54.7,54.7c0,16.6-7.5,31.5-19.2,41.5c-4.1,3.7-22,19.4-31.3,24.3c-1.6,1.5-1.1,9.5-1.1,9.5l-0.1,37.5c24.4,2.1,52,10.3,89,77.7c10.3,16.3,5.9,25.1,60.6,59.1c54.7,34,212.7,118.2,260,144.8c47.3,26.6,70.6,49.6,72.4,75.3C990.6,760.6,988.3,770.9,985.4,773.4z M585.1,538.6c0,0-73.9-47.3-84.2-45.8c-0.3,0-0.6,0-0.9,0c0,0,0,0-0.1,0c0,0,0,0-0.1,0c-0.3,0-0.6,0-0.9,0c-10.3-1.5-84.2,45.8-84.2,45.8L82.5,745.4l392-2.7l-0.2-0.3l18.6,0.1l18-0.1l-0.1,0.2l406.6,2.7L585.1,538.6z"/></g>
</svg>